<?xml version="1.0" encoding="UTF-8" standalone="no" ?>
<!DOCTYPE svg PUBLIC "-//W3C//DTD SVG 1.1//EN" "http://www.w3.org/Graphics/SVG/1.1/DTD/svg11.dtd">
<svg xmlns="http://www.w3.org/2000/svg" xmlns:xlink="http://www.w3.org/1999/xlink" version="1.1" width="1280" height="1024" viewBox="0 0 1280 1024" xml:space="preserve">
<desc>Created with Fabric.js 5.3.0</desc>
<defs>
</defs>
<g transform="matrix(1 0 0 1 640 512)" id="background-logo"  >
<rect style="stroke: none; stroke-width: 0; stroke-dasharray: none; stroke-linecap: butt; stroke-dashoffset: 0; stroke-linejoin: miter; stroke-miterlimit: 4; fill: rgb(255,255,255); fill-opacity: 0; fill-rule: nonzero; opacity: 1;"  paint-order="stroke"  x="-640" y="-512" rx="0" ry="0" width="1280" height="1024" />
</g>
<g transform="matrix(1.9211538461538462 0 0 1.9211538461538462 639.2882125000002 653.0460481657522)" id="text-logo"  >
<g style=""  paint-order="stroke"   >
		<g transform="matrix(1 0 0 1 0 0)" id="text-logo-path-0"  >
<path style="stroke: none; stroke-width: 0; stroke-dasharray: none; stroke-linecap: butt; stroke-dashoffset: 0; stroke-linejoin: miter; stroke-miterlimit: 4; fill: rgb(0,51,160); fill-rule: nonzero; opacity: 1;"  paint-order="stroke"  transform=" translate(-208.085, 12.09)" d="M 9.83 -24.18 L 4.17 -24.18 L 4.17 -5.23 C 4.17 -4.84 4.02 -4.68 3.67 -4.68 L 0 -4.68 L 0 0.39 L 3.04 0.39 C 7.61 0.39 9.83 -1.68 9.83 -5.69 Z M 25.27 0.39 C 29.83 0.39 32.1 -1.68 32.1 -5.69 L 32.1 -24.18 L 26.4 -24.18 L 26.4 -5.23 C 26.4 -4.84 26.21 -4.68 25.86 -4.68 L 19.85 -4.68 C 19.5 -4.68 19.3 -4.84 19.3 -5.23 L 19.3 -24.18 L 13.61 -24.18 L 13.61 -5.69 C 13.61 -1.68 15.87 0.39 20.44 0.39 Z M 50.39 0 L 54.37 0 L 54.37 -24.18 L 49.53 -24.18 L 49.53 -9.67 L 39.66 -24.18 L 35.72 -24.18 L 35.72 0 L 40.56 0 L 40.56 -14.51 Z M 64.35 0 L 64.35 -24.18 L 58.7 -24.18 L 58.7 0 Z M 81.12 -19.5 C 81.47 -19.5 81.67 -19.34 81.67 -18.95 L 81.67 -5.23 C 81.67 -4.84 81.47 -4.68 81.12 -4.68 L 74.96 -4.68 C 74.61 -4.68 74.41 -4.84 74.41 -5.23 L 74.41 -18.95 C 74.41 -19.34 74.61 -19.5 74.96 -19.5 Z M 68.72 -5.69 C 68.72 -1.68 70.98 0.39 75.54 0.39 L 80.5 0.39 C 85.06 0.39 87.36 -1.68 87.36 -5.69 L 87.36 -18.49 C 87.36 -22.5 85.06 -24.57 80.5 -24.57 L 75.54 -24.57 C 70.98 -24.57 68.72 -22.5 68.72 -18.49 Z M 97.15 0 L 97.15 -8.66 L 100.93 -8.66 C 101.4 -8.66 101.4 -8.46 101.56 -8.03 L 104.21 0 L 109.82 0 L 107.48 -6.71 C 106.98 -8.07 106.35 -8.89 105.46 -9.44 C 107.72 -10.53 108.85 -12.71 108.85 -15.17 L 108.85 -18.1 C 108.85 -22.11 106.35 -24.45 101.79 -24.38 L 91.49 -24.18 L 91.49 0 Z M 102.61 -19.46 C 102.96 -19.46 103.12 -19.3 103.12 -18.91 L 103.12 -14.04 C 103.12 -13.65 102.96 -13.53 102.61 -13.53 L 97.15 -13.53 L 97.15 -19.46 Z M 125.31 0 L 125.31 -8.66 L 129.09 -8.66 C 129.56 -8.66 129.56 -8.46 129.71 -8.03 L 132.37 0 L 137.98 0 L 135.64 -6.71 C 135.14 -8.07 134.51 -8.89 133.61 -9.44 C 135.88 -10.53 137.01 -12.71 137.01 -15.17 L 137.01 -18.1 C 137.01 -22.11 134.51 -24.45 129.95 -24.38 L 119.65 -24.18 L 119.65 0 Z M 130.77 -19.46 C 131.12 -19.46 131.27 -19.3 131.27 -18.91 L 131.27 -14.04 C 131.27 -13.65 131.12 -13.53 130.77 -13.53 L 125.31 -13.53 L 125.31 -19.46 Z M 155.42 0 L 155.42 -4.91 L 146.25 -4.91 L 146.25 -9.83 L 154.48 -9.83 L 154.48 -14.66 L 146.25 -14.66 L 146.25 -19.27 L 155.22 -19.27 L 155.22 -24.18 L 140.59 -24.18 L 140.59 0 Z M 163.25 -14.7 C 162.9 -14.7 162.71 -14.86 162.71 -15.25 L 162.71 -18.72 C 162.71 -19.11 162.9 -19.27 163.25 -19.27 L 172.77 -19.27 L 172.77 -24.18 L 164.03 -24.38 C 159.47 -24.49 156.97 -22.11 156.97 -18.1 L 156.97 -15.99 C 156.97 -11.97 159.47 -9.59 164.03 -9.59 L 167.43 -9.59 C 167.78 -9.59 167.97 -9.44 167.97 -9.05 L 167.97 -5.46 C 167.97 -5.07 167.78 -4.91 167.43 -4.91 L 157.6 -4.91 L 157.6 0 L 166.61 0.2 C 171.17 0.31 173.67 -2.07 173.67 -6.08 L 173.67 -8.31 C 173.67 -12.32 171.17 -14.7 166.61 -14.7 Z M 191.29 0 L 191.29 -4.91 L 182.13 -4.91 L 182.13 -9.83 L 190.36 -9.83 L 190.36 -14.66 L 182.13 -14.66 L 182.13 -19.27 L 191.1 -19.27 L 191.1 -24.18 L 176.47 -24.18 L 176.47 0 Z M 213.06 0 L 207.95 -24.18 L 202.45 -24.38 C 198.94 -24.49 197.92 -23.4 197.07 -19.81 L 192.11 0 L 197.38 0 L 198.59 -5.38 L 206.39 -5.38 L 207.44 0 Z M 201.67 -18.8 C 201.75 -19.19 201.82 -19.34 202.21 -19.34 L 203.66 -19.34 L 205.45 -10.22 L 199.68 -10.22 Z M 220.93 0 L 220.93 -8.66 L 224.72 -8.66 C 225.19 -8.66 225.19 -8.46 225.34 -8.03 L 227.99 0 L 233.61 0 L 231.27 -6.71 C 230.76 -8.07 230.14 -8.89 229.24 -9.44 C 231.5 -10.53 232.63 -12.71 232.63 -15.17 L 232.63 -18.1 C 232.63 -22.11 230.14 -24.45 225.58 -24.38 L 215.28 -24.18 L 215.28 0 Z M 226.39 -19.46 C 226.75 -19.46 226.9 -19.3 226.9 -18.91 L 226.9 -14.04 C 226.9 -13.65 226.75 -13.53 226.39 -13.53 L 220.93 -13.53 L 220.93 -19.46 Z M 250.03 -5.07 L 241.72 -5.07 C 241.37 -5.07 241.18 -5.23 241.18 -5.62 L 241.18 -18.6 C 241.18 -18.99 241.37 -19.11 241.72 -19.11 L 250.03 -19.11 L 250.03 -24.18 L 242.35 -24.18 C 237.78 -24.18 235.48 -22.11 235.48 -18.1 L 235.48 -6.08 C 235.48 -2.07 237.78 0 242.35 0 L 250.03 0 Z M 265.2 0 L 270.82 0 L 270.82 -24.18 L 265.2 -24.18 L 265.2 -14.74 L 257.98 -14.74 L 257.98 -24.18 L 252.33 -24.18 L 252.33 0 L 257.98 0 L 257.98 -9.83 L 265.2 -9.83 Z M 287 -14.7 C 286.65 -14.7 286.45 -14.86 286.45 -15.25 L 286.45 -18.72 C 286.45 -19.11 286.65 -19.27 287 -19.27 L 296.52 -19.27 L 296.52 -24.18 L 287.78 -24.38 C 283.22 -24.49 280.72 -22.11 280.72 -18.1 L 280.72 -15.99 C 280.72 -11.97 283.22 -9.59 287.78 -9.59 L 291.17 -9.59 C 291.52 -9.59 291.72 -9.44 291.72 -9.05 L 291.72 -5.46 C 291.72 -5.07 291.52 -4.91 291.17 -4.91 L 281.35 -4.91 L 281.35 0 L 290.35 0.2 C 294.92 0.31 297.41 -2.07 297.41 -6.08 L 297.41 -8.31 C 297.41 -12.32 294.92 -14.7 290.35 -14.7 Z M 315.04 0 L 315.04 -4.91 L 305.88 -4.91 L 305.88 -9.83 L 314.11 -9.83 L 314.11 -14.66 L 305.88 -14.66 L 305.88 -19.27 L 314.85 -19.27 L 314.85 -24.18 L 300.22 -24.18 L 300.22 0 Z M 336.49 -24.18 L 334.81 -24.18 L 328.85 -12.6 L 323.47 -22.62 C 322.84 -23.71 322.45 -24.18 320.7 -24.18 L 317.69 -24.18 L 317.69 0 L 322.65 0 L 322.65 -15.13 L 326.74 -6.9 L 330.1 -6.9 L 334.5 -15.52 L 334.5 0 L 339.92 0 L 339.92 -20.94 C 339.92 -23.24 338.95 -24.18 336.49 -24.18 Z M 349.91 0 L 349.91 -24.18 L 344.25 -24.18 L 344.25 0 Z M 368.94 0 L 372.92 0 L 372.92 -24.18 L 368.08 -24.18 L 368.08 -9.67 L 358.22 -24.18 L 354.28 -24.18 L 354.28 0 L 359.11 0 L 359.11 -14.51 Z M 395.62 0 L 390.51 -24.18 L 385.01 -24.38 C 381.5 -24.49 380.48 -23.4 379.63 -19.81 L 374.67 0 L 379.94 0 L 381.15 -5.38 L 388.95 -5.38 L 390 0 Z M 384.23 -18.8 C 384.31 -19.19 384.38 -19.34 384.77 -19.34 L 386.22 -19.34 L 388.01 -10.22 L 382.24 -10.22 Z M 403.49 0 L 403.49 -8.66 L 407.28 -8.66 C 407.75 -8.66 407.75 -8.46 407.9 -8.03 L 410.55 0 L 416.17 0 L 413.83 -6.71 C 413.32 -8.07 412.7 -8.89 411.8 -9.44 C 414.06 -10.53 415.19 -12.71 415.19 -15.17 L 415.19 -18.1 C 415.19 -22.11 412.7 -24.45 408.14 -24.38 L 397.84 -24.18 L 397.84 0 Z M 408.95 -19.46 C 409.31 -19.46 409.46 -19.3 409.46 -18.91 L 409.46 -14.04 C 409.46 -13.65 409.31 -13.53 408.95 -13.53 L 403.49 -13.53 L 403.49 -19.46 Z" stroke-linecap="round" />
</g>
</g>
</g>
<g transform="matrix(1.9211538461538462 0 0 1.9211538461538462 639.7210101829094 711.6819689349829)" id="tagline-f75eed21-651e-410d-a676-bc7f58bf5cde-logo"  >
<g style=""  paint-order="stroke"   >
		<g transform="matrix(1 0 0 1 0 0)" id="tagline-f75eed21-651e-410d-a676-bc7f58bf5cde-logo-path-0"  >
<path style="stroke: none; stroke-width: 0; stroke-dasharray: none; stroke-linecap: butt; stroke-dashoffset: 0; stroke-linejoin: miter; stroke-miterlimit: 4; fill: rgb(12,36,68); fill-rule: nonzero; opacity: 1;"  paint-order="stroke"  transform=" translate(-128.355, 8.055)" d="M 0.95 0 L 9.69 0 L 9.69 -2.66 L 3.99 -2.66 L 3.99 -12.73 L 0.95 -12.73 Z M 13.74 0 L 13.74 -12.73 L 10.7 -12.73 L 10.7 0 Z M 26.92 -2.79 L 24.21 -4.37 C 23.6 -3.46 22.57 -2.85 21.36 -2.85 C 19.42 -2.85 17.88 -4.41 17.88 -6.37 C 17.88 -8.32 19.44 -9.88 21.36 -9.88 C 22.57 -9.88 23.69 -9.23 24.32 -8.23 L 27 -9.79 C 25.8 -11.7 23.71 -12.94 21.36 -12.94 C 18.92 -12.94 16.78 -11.67 15.62 -9.65 C 15.03 -8.64 14.74 -7.54 14.74 -6.37 C 14.74 -4.01 16 -1.88 18.03 -0.68 C 19.04 -0.1 20.16 0.21 21.36 0.21 C 23.65 0.21 25.71 -0.97 26.92 -2.79 Z M 28.01 0 L 37.13 0 L 37.13 -2.66 L 31.05 -2.66 L 31.05 -5.04 L 35.99 -5.04 L 35.99 -7.69 L 31.05 -7.69 L 31.05 -10.07 L 37.13 -10.07 L 37.13 -12.73 L 28.01 -12.73 Z M 41.17 0 L 41.17 -7.87 L 45.81 0 L 49.53 0 L 49.53 -12.73 L 46.49 -12.73 L 46.49 -4.83 L 41.84 -12.73 L 38.13 -12.73 L 38.13 0 Z M 62.72 -2.79 L 60 -4.37 C 59.39 -3.46 58.37 -2.85 57.15 -2.85 C 55.21 -2.85 53.67 -4.41 53.67 -6.37 C 53.67 -8.32 55.23 -9.88 57.15 -9.88 C 58.37 -9.88 59.49 -9.23 60.12 -8.23 L 62.79 -9.79 C 61.6 -11.7 59.51 -12.94 57.15 -12.94 C 54.72 -12.94 52.57 -11.67 51.41 -9.65 C 50.82 -8.64 50.54 -7.54 50.54 -6.37 C 50.54 -4.01 51.79 -1.88 53.83 -0.68 C 54.83 -0.1 55.95 0.21 57.15 0.21 C 59.45 0.21 61.5 -0.97 62.72 -2.79 Z M 66.84 0 L 66.84 -12.73 L 63.8 -12.73 L 63.8 0 Z M 71.19 0 L 72.14 -2.47 L 76.78 -2.47 L 77.73 0 L 81.07 0 L 76.13 -12.73 L 72.79 -12.73 L 67.85 0 Z M 73.19 -5.13 L 74.46 -8.42 L 75.73 -5.13 Z M 88.54 0 L 88.54 -10.09 L 91.96 -10.09 L 91.96 -12.75 L 82.08 -12.75 L 82.08 -10.09 L 85.5 -10.09 L 85.5 0 Z M 96.01 -5.55 L 96.01 -12.73 L 92.97 -12.73 L 92.97 -5.55 C 92.97 -3.44 94.07 -1.61 95.82 -0.59 C 96.69 -0.08 97.64 0.19 98.69 0.19 C 100.74 0.19 102.58 -0.91 103.61 -2.68 C 104.12 -3.55 104.37 -4.5 104.37 -5.55 L 104.37 -12.73 L 101.33 -12.73 L 101.33 -5.55 C 101.33 -3.97 100.21 -2.77 98.69 -2.77 C 97.15 -2.77 96.01 -3.97 96.01 -5.55 Z M 115.99 0 L 113.13 -4.6 C 114.65 -5.22 115.71 -6.73 115.71 -8.51 C 115.71 -10.81 113.92 -12.63 111.64 -12.73 L 105.37 -12.73 L 105.37 0 L 108.41 0 L 108.41 -4.27 L 109.63 -4.27 L 112.31 0 Z M 111.11 -6.93 L 108.41 -6.93 L 108.41 -10.07 L 111.11 -10.07 C 112.04 -10.07 112.67 -9.42 112.67 -8.49 C 112.67 -7.56 112.04 -6.93 111.11 -6.93 Z M 120.35 0 L 121.3 -2.47 L 125.93 -2.47 L 126.88 0 L 130.23 0 L 125.29 -12.73 L 121.94 -12.73 L 117 0 Z M 122.34 -5.13 L 123.61 -8.42 L 124.89 -5.13 Z M 134.14 0 L 143.26 0 L 143.26 -2.66 L 137.18 -2.66 L 137.18 -5.04 L 142.12 -5.04 L 142.12 -7.69 L 137.18 -7.69 L 137.18 -10.07 L 143.26 -10.07 L 143.26 -12.73 L 134.14 -12.73 Z M 147.31 0 L 147.31 -7.87 L 151.94 0 L 155.67 0 L 155.67 -12.73 L 152.63 -12.73 L 152.63 -4.83 L 147.97 -12.73 L 144.27 -12.73 L 144.27 0 Z M 159.58 0 L 168.7 0 L 168.7 -2.66 L 162.62 -2.66 L 162.62 -5.04 L 167.56 -5.04 L 167.56 -7.69 L 162.62 -7.69 L 162.62 -10.07 L 168.7 -10.07 L 168.7 -12.73 L 159.58 -12.73 Z M 181.89 -2.79 L 179.17 -4.37 C 178.56 -3.46 177.54 -2.85 176.32 -2.85 C 174.38 -2.85 172.84 -4.41 172.84 -6.37 C 172.84 -8.32 174.4 -9.88 176.32 -9.88 C 177.54 -9.88 178.66 -9.23 179.28 -8.23 L 181.96 -9.79 C 180.77 -11.7 178.68 -12.94 176.32 -12.94 C 173.89 -12.94 171.74 -11.67 170.58 -9.65 C 169.99 -8.64 169.71 -7.54 169.71 -6.37 C 169.71 -4.01 170.96 -1.88 173 -0.68 C 174 -0.1 175.12 0.21 176.32 0.21 C 178.62 0.21 180.67 -0.97 181.89 -2.79 Z M 188.82 0.21 C 191.25 0.21 193.4 -1.08 194.56 -3.1 C 195.15 -4.1 195.43 -5.19 195.43 -6.37 C 195.43 -8.72 194.18 -10.85 192.15 -12.05 C 191.14 -12.63 190.02 -12.94 188.82 -12.94 C 186.39 -12.94 184.24 -11.67 183.08 -9.65 C 182.5 -8.64 182.21 -7.54 182.21 -6.37 C 182.21 -4.01 183.46 -1.88 185.5 -0.68 C 186.5 -0.1 187.63 0.21 188.82 0.21 Z M 185.35 -6.37 C 185.35 -8.32 186.9 -9.88 188.82 -9.88 C 190.76 -9.88 192.3 -8.32 192.3 -6.37 C 192.3 -4.41 190.74 -2.85 188.82 -2.85 C 186.88 -2.85 185.35 -4.41 185.35 -6.37 Z M 199.48 0 L 199.48 -7.87 L 204.12 0 L 207.84 0 L 207.84 -12.73 L 204.8 -12.73 L 204.8 -4.83 L 200.15 -12.73 L 196.44 -12.73 L 196.44 0 Z M 215.46 0.21 C 217.89 0.21 220.04 -1.08 221.2 -3.1 C 221.79 -4.1 222.07 -5.19 222.07 -6.37 C 222.07 -8.72 220.82 -10.85 218.79 -12.05 C 217.78 -12.63 216.66 -12.94 215.46 -12.94 C 213.03 -12.94 210.88 -11.67 209.72 -9.65 C 209.13 -8.64 208.85 -7.54 208.85 -6.37 C 208.85 -4.01 210.1 -1.88 212.14 -0.68 C 213.14 -0.1 214.26 0.21 215.46 0.21 Z M 211.98 -6.37 C 211.98 -8.32 213.54 -9.88 215.46 -9.88 C 217.4 -9.88 218.94 -8.32 218.94 -6.37 C 218.94 -4.41 217.38 -2.85 215.46 -2.85 C 213.52 -2.85 211.98 -4.41 211.98 -6.37 Z M 226.12 0 L 226.12 -6.04 L 228.61 0 L 231.93 0 L 234.44 -6.08 L 234.44 0 L 237.48 0 L 237.48 -12.73 L 233.87 -12.73 L 230.28 -3.99 L 226.67 -12.73 L 223.08 -12.73 L 223.08 0 Z M 241.53 0 L 241.53 -12.73 L 238.49 -12.73 L 238.49 0 Z M 238.53 -13.64 L 240.5 -13.64 L 242.42 -16.32 L 240.07 -16.32 Z M 245.88 0 L 246.83 -2.47 L 251.47 -2.47 L 252.42 0 L 255.76 0 L 250.82 -12.73 L 247.48 -12.73 L 242.54 0 Z M 247.87 -5.13 L 249.15 -8.42 L 250.42 -5.13 Z" stroke-linecap="round" />
</g>
</g>
</g>
<g transform="matrix(1.9211538461538462 0 0 1.9211538461538462 640 398.7239029404295)" id="logo-logo"  >
<g style=""  paint-order="stroke"   >
		<g transform="matrix(0.1477208826735051 0 0 -0.14772088267350508 -54.81471407321618 10.26364692815514)"  >
<path style="stroke: none; stroke-width: 1; stroke-dasharray: none; stroke-linecap: butt; stroke-dashoffset: 0; stroke-linejoin: miter; stroke-miterlimit: 4; fill: rgb(12,36,68); fill-rule: nonzero; opacity: 1;"  paint-order="stroke"  transform=" translate(-228.9455, -514.9649999999999)" d="M 74.6094 331.066 L 383.285 135.609 L 383.285 222.52300000000002 L 457.891 175.316 L 457.891 0 L 0 290.043 L 0 1029.9299999999998 L 89.5313 973.2269999999999 L 89.5313 884.8319999999999 L 74.6094 894.3359999999999 L 74.6094 331.0659999999999" stroke-linecap="round" />
</g>
		<g transform="matrix(0.1477208826735051 0 0 -0.14772088267350508 -36.56143548478184 -10.58050822148985)"  >
<path style="stroke: none; stroke-width: 1; stroke-dasharray: none; stroke-linecap: butt; stroke-dashoffset: 0; stroke-linejoin: miter; stroke-miterlimit: 4; fill: rgb(0,51,160); fill-rule: nonzero; opacity: 1;"  paint-order="stroke"  transform=" translate(-352.51149999999996, -656.07)" d="M 509.926 274.543 L 457.891 307.57 L 383.285 354.75 L 201.441 470.023 L 201.441 1033.29 L 509.926 837.836 Z M 457.89099999999996 219.34 L 578.1909999999999 143.25 L 578.1909999999999 882.961 L 126.832 1168.89 L 126.832 428.988 L 383.285 266.547 L 457.891 219.34" stroke-linecap="round" />
</g>
		<g transform="matrix(0.1477208826735051 0 0 -0.14772088267350508 36.575690549959916 -10.58050822148985)"  >
<path style="stroke: none; stroke-width: 1; stroke-dasharray: none; stroke-linecap: butt; stroke-dashoffset: 0; stroke-linejoin: miter; stroke-miterlimit: 4; fill: rgb(0,51,160); fill-rule: nonzero; opacity: 1;"  paint-order="stroke"  transform=" translate(-847.615, -656.07)" d="M 998.785 470.023 L 816.93 354.945 L 742.328 307.57 L 690.102 274.543 L 690.102 837.836 L 998.785 1033.29 Z M 816.93 266.723 L 1073.39 428.988 L 1073.39 1168.89 L 621.84 882.961 L 621.84 143.25 L 742.328 219.34 L 816.93 266.723" stroke-linecap="round" />
</g>
		<g transform="matrix(0.1477208826735051 0 0 -0.14772088267350508 54.82867369662881 10.26364692815514)"  >
<path style="stroke: none; stroke-width: 1; stroke-dasharray: none; stroke-linecap: butt; stroke-dashoffset: 0; stroke-linejoin: miter; stroke-miterlimit: 4; fill: rgb(12,36,68); fill-rule: nonzero; opacity: 1;"  paint-order="stroke"  transform=" translate(-971.179, -514.965)" d="M 742.328 0 L 742.328 175.141 L 762.27 187.83599999999998 L 816.93 222.52299999999997 L 816.93 135.60899999999998 L 1125.42 331.066 L 1125.42 894.336 L 1110.7 885.0120000000001 L 1110.7 973.426 L 1200.03 1029.93 L 1200.03 290.043 L 742.328 0" stroke-linecap="round" />
</g>
</g>
</g>
</svg>